M48
;Layer_Color=9474304
;FILE_FORMAT=4:4
METRIC
;TYPE=PLATED
T1F00S00C0.3000
T2F00S00C0.4000
T4F00S00C0.9000
;TYPE=NON_PLATED
T5F00S00C1.1000
%
T01
X01494790Y00935228
X01507490Y00928370
X01522730Y00958850
Y00966470
X01530350
Y00958850
X01554988Y00960120
X01556004Y00969264
X01540764Y00985012
X01526540
X01516380Y00984250
X01508760Y00979678
X01502410Y00986790
X01499870Y00969010
X01494790Y00961898
X01526540Y01003300
X01567350Y00910252
X01605280Y00943864
X01612900Y00949198
X01621790Y00944372
X01630680Y00942340
X01639570Y00942594
X01652524Y00944118
X01656250Y00952670
X01656334Y00989838
X01648460Y00994410
X01634490Y00976630
X01619250Y00986790
X01681480Y01013460
X01691090Y00964480
X01691116Y00955688
X01684020Y00933450
T02
X01567688Y00976376
X01606550Y00973920
X01607566Y00987298
X01645920Y00908050
X01661160
X01677670
Y00923290
X01692148Y00941578
T04
X01500124Y00916432
X01525524
X01550924
T05
X01751000Y00946510
Y00991510
M30
