%FSLAX44Y44*%
%MOMM*%
G71*
G01*
G75*
G04 Layer_Color=8388736*
%ADD10R,0.5000X0.6000*%
%ADD11R,1.0500X2.2000*%
%ADD12R,1.0000X1.0000*%
%ADD13R,0.5500X0.6000*%
%ADD14R,0.6000X0.5500*%
%ADD15R,0.9000X1.3000*%
%ADD16R,0.2500X0.6100*%
%ADD17R,0.6100X0.2500*%
%ADD18R,1.6000X1.6000*%
%ADD19R,0.2800X0.2800*%
%ADD20R,0.8000X0.6000*%
%ADD21R,2.1000X0.5000*%
%ADD22C,0.2032*%
%ADD23C,0.2540*%
%ADD24C,1.5000*%
%ADD25R,1.5000X1.5000*%
%ADD26C,1.1000*%
%ADD27O,3.2000X1.3000*%
%ADD28O,3.2000X1.3000*%
%ADD29C,0.6096*%
%ADD30C,0.8000*%
%ADD31O,1.8000X0.3000*%
%ADD32O,0.3000X1.8000*%
%ADD33R,1.5000X0.8000*%
%ADD34R,0.8000X1.5000*%
%ADD35R,0.7000X0.8000*%
%ADD36R,1.2500X2.4000*%
%ADD37R,1.2000X1.2000*%
%ADD38R,0.7500X0.8000*%
%ADD39R,0.8000X0.7500*%
%ADD40R,1.1000X1.5000*%
%ADD41R,0.4500X0.8100*%
%ADD42R,0.8100X0.4500*%
%ADD43R,1.8000X1.8000*%
%ADD44R,0.4800X0.4800*%
%ADD45R,1.0000X0.8000*%
%ADD46R,2.3000X0.7000*%
%ADD47C,1.7000*%
%ADD48R,1.7000X1.7000*%
%ADD49O,3.4000X1.5000*%
%ADD50O,3.4000X1.5000*%
%ADD51C,1.0000*%
%ADD52C,0.8096*%
D26*
X1751000Y991510D02*
D03*
Y946510D02*
D03*
D35*
X1518920Y1003220D02*
D03*
Y993220D02*
D03*
D36*
X1559100Y1019810D02*
D03*
X1529540Y1019879D02*
D03*
D37*
X1544320Y1004810D02*
D03*
D38*
X1544490Y993140D02*
D03*
X1533990D02*
D03*
X1603264Y933450D02*
D03*
X1613763D02*
D03*
X1658790Y1003300D02*
D03*
X1648290D02*
D03*
X1593004Y928370D02*
D03*
X1582504D02*
D03*
X1593004Y920242D02*
D03*
X1582504D02*
D03*
X1593004Y912114D02*
D03*
X1582504D02*
D03*
X1507320Y935990D02*
D03*
X1517820D02*
D03*
X1671150Y993140D02*
D03*
X1681650D02*
D03*
X1691810Y985520D02*
D03*
X1681310D02*
D03*
X1621620Y1010920D02*
D03*
X1632120D02*
D03*
D39*
X1664970Y942170D02*
D03*
Y952670D02*
D03*
X1595120Y942170D02*
D03*
Y952670D02*
D03*
X1509776Y992970D02*
D03*
Y1003470D02*
D03*
X1701800Y959020D02*
D03*
Y948520D02*
D03*
Y979340D02*
D03*
Y968840D02*
D03*
X1499870Y943440D02*
D03*
Y953940D02*
D03*
X1586738Y973920D02*
D03*
Y984420D02*
D03*
X1595120Y973920D02*
D03*
Y984420D02*
D03*
X1578610D02*
D03*
Y973920D02*
D03*
X1648460Y972990D02*
D03*
Y962490D02*
D03*
D40*
X1634370Y965710D02*
D03*
X1619370D02*
D03*
Y997710D02*
D03*
X1634370D02*
D03*
D41*
X1534040Y976210D02*
D03*
X1529040D02*
D03*
X1524040D02*
D03*
X1519040D02*
D03*
Y949110D02*
D03*
X1524040D02*
D03*
X1529040D02*
D03*
X1534040D02*
D03*
D42*
X1512990Y970160D02*
D03*
Y965160D02*
D03*
Y960160D02*
D03*
Y955160D02*
D03*
X1540090D02*
D03*
Y960160D02*
D03*
Y965160D02*
D03*
Y970160D02*
D03*
D43*
X1526540Y962660D02*
D03*
D44*
X1539190Y975310D02*
D03*
Y950010D02*
D03*
X1513890Y975310D02*
D03*
Y950010D02*
D03*
D45*
X1694750Y1003960D02*
D03*
Y1013460D02*
D03*
Y1022960D02*
D03*
X1670750D02*
D03*
Y1003960D02*
D03*
D46*
X1725000Y1004010D02*
D03*
Y979010D02*
D03*
Y959010D02*
D03*
Y934010D02*
D03*
D47*
X1500124Y916432D02*
D03*
X1525524D02*
D03*
D48*
X1550924D02*
D03*
D49*
X1751000Y1026010D02*
D03*
D50*
Y912010D02*
D03*
D51*
X1567688Y976376D02*
D03*
X1606550Y973920D02*
D03*
X1692148Y941578D02*
D03*
X1661160Y908050D02*
D03*
X1677670D02*
D03*
X1645920D02*
D03*
X1677670Y923290D02*
D03*
X1607566Y987298D02*
D03*
D52*
X1522730Y966470D02*
D03*
X1530350D02*
D03*
X1522730Y958850D02*
D03*
X1530350D02*
D03*
M02*
