%FSLAX44Y44*%
%MOMM*%
G71*
G01*
G75*
G04 Layer_Color=16711935*
%ADD10R,0.5000X0.6000*%
%ADD11R,1.0500X2.2000*%
%ADD12R,1.0000X1.0000*%
%ADD13R,0.5500X0.6000*%
%ADD14R,0.6000X0.5500*%
%ADD15R,0.9000X1.3000*%
%ADD16R,0.2500X0.6100*%
%ADD17R,0.6100X0.2500*%
%ADD18R,1.6000X1.6000*%
%ADD19R,0.2800X0.2800*%
%ADD20R,0.8000X0.6000*%
%ADD21R,2.1000X0.5000*%
%ADD22C,0.2032*%
%ADD23C,0.2540*%
%ADD24C,1.5000*%
%ADD25R,1.5000X1.5000*%
%ADD26C,1.1000*%
%ADD27O,3.2000X1.3000*%
%ADD28O,3.2000X1.3000*%
%ADD29C,0.6096*%
%ADD30C,0.8000*%
%ADD31O,1.8000X0.3000*%
%ADD32O,0.3000X1.8000*%
%ADD33R,1.5000X0.8000*%
%ADD34R,0.8000X1.5000*%
%ADD35R,0.7000X0.8000*%
%ADD36R,1.2500X2.4000*%
%ADD37R,1.2000X1.2000*%
%ADD38R,0.7500X0.8000*%
%ADD39R,0.8000X0.7500*%
%ADD40R,1.1000X1.5000*%
%ADD41R,0.4500X0.8100*%
%ADD42R,0.8100X0.4500*%
%ADD43R,1.8000X1.8000*%
%ADD44R,0.4800X0.4800*%
%ADD45R,1.0000X0.8000*%
%ADD46R,2.3000X0.7000*%
%ADD47C,1.7000*%
%ADD48R,1.7000X1.7000*%
%ADD49O,3.4000X1.5000*%
%ADD50O,3.4000X1.5000*%
%ADD51C,1.0000*%
%ADD52C,0.8096*%
%ADD53O,2.0000X0.5000*%
%ADD54O,0.5000X2.0000*%
%ADD55R,1.7000X1.0000*%
%ADD56R,1.0000X1.7000*%
D26*
X1751000Y991510D02*
D03*
Y946510D02*
D03*
D38*
X1694010Y974090D02*
D03*
X1704510D02*
D03*
X1694010Y984250D02*
D03*
X1704510D02*
D03*
X1694010Y994410D02*
D03*
X1704510D02*
D03*
Y1003300D02*
D03*
X1694010D02*
D03*
X1635147Y913133D02*
D03*
X1624647D02*
D03*
X1561930Y997458D02*
D03*
X1572430D02*
D03*
X1561930Y1025906D02*
D03*
X1572430D02*
D03*
X1561930Y1017778D02*
D03*
X1572430D02*
D03*
X1561930Y1009650D02*
D03*
X1572430D02*
D03*
X1543134Y1003300D02*
D03*
X1553634D02*
D03*
X1619928Y913130D02*
D03*
X1609428D02*
D03*
X1638130Y1024890D02*
D03*
X1648630D02*
D03*
X1629580D02*
D03*
X1619080D02*
D03*
D39*
X1572260Y956140D02*
D03*
Y966640D02*
D03*
D47*
X1500124Y916432D02*
D03*
X1525524D02*
D03*
D48*
X1550924D02*
D03*
D49*
X1751000Y1026010D02*
D03*
D50*
Y912010D02*
D03*
D53*
X1590180Y941510D02*
D03*
Y946510D02*
D03*
Y951510D02*
D03*
Y956510D02*
D03*
Y961510D02*
D03*
Y966510D02*
D03*
Y971510D02*
D03*
Y976510D02*
D03*
Y981510D02*
D03*
Y986510D02*
D03*
Y991510D02*
D03*
Y996510D02*
D03*
X1671180D02*
D03*
Y991510D02*
D03*
Y986510D02*
D03*
Y981510D02*
D03*
Y976510D02*
D03*
Y971510D02*
D03*
Y966510D02*
D03*
Y961510D02*
D03*
Y956510D02*
D03*
Y951510D02*
D03*
Y946510D02*
D03*
Y941510D02*
D03*
D54*
X1603180Y1009510D02*
D03*
X1608180D02*
D03*
X1613180D02*
D03*
X1618180D02*
D03*
X1623180D02*
D03*
X1628180D02*
D03*
X1633180D02*
D03*
X1638180D02*
D03*
X1643180D02*
D03*
X1648180D02*
D03*
X1653180D02*
D03*
X1658180D02*
D03*
Y928510D02*
D03*
X1653180D02*
D03*
X1648180D02*
D03*
X1643180D02*
D03*
X1638180D02*
D03*
X1633180D02*
D03*
X1628180D02*
D03*
X1623180D02*
D03*
X1618180D02*
D03*
X1613180D02*
D03*
X1608180D02*
D03*
X1603180D02*
D03*
D55*
X1700530Y910480D02*
D03*
Y928480D02*
D03*
X1718310Y910480D02*
D03*
Y928480D02*
D03*
D56*
X1694070Y1019810D02*
D03*
X1712070D02*
D03*
M02*
