%FSLAX44Y44*%
%MOMM*%
G71*
G01*
G75*
G04 Layer_Physical_Order=1*
G04 Layer_Color=255*
%ADD10R,0.5000X0.6000*%
%ADD11R,1.0500X2.2000*%
%ADD12R,1.0000X1.0000*%
%ADD13R,0.5500X0.6000*%
%ADD14R,0.6000X0.5500*%
%ADD15R,0.9000X1.3000*%
%ADD16R,0.2500X0.6100*%
%ADD17R,0.6100X0.2500*%
%ADD18R,1.6000X1.6000*%
%ADD19R,0.2800X0.2800*%
%ADD20R,0.8000X0.6000*%
%ADD21R,2.1000X0.5000*%
%ADD22C,0.2032*%
%ADD23C,0.2540*%
%ADD24C,1.5000*%
%ADD25R,1.5000X1.5000*%
%ADD26C,1.1000*%
%ADD27O,3.2000X1.3000*%
%ADD28O,3.2000X1.3000*%
%ADD29C,0.6096*%
%ADD30C,0.8000*%
G36*
X1736441Y1034939D02*
X1736650Y1034323D01*
X1734690Y1032820D01*
X1733160Y1030825D01*
X1732198Y1028503D01*
X1732037Y1027280D01*
X1751000D01*
Y1026010D01*
X1752270D01*
Y1016380D01*
X1760500D01*
X1762993Y1016708D01*
X1765315Y1017670D01*
X1767310Y1019200D01*
X1768840Y1021195D01*
X1769536Y1022876D01*
X1770540Y1022676D01*
X1774666D01*
Y915344D01*
X1770540D01*
X1769536Y915144D01*
X1768840Y916825D01*
X1767310Y918820D01*
X1765315Y920350D01*
X1762993Y921312D01*
X1760500Y921640D01*
X1752270D01*
Y912010D01*
X1751000D01*
Y910740D01*
X1732037D01*
X1732198Y909518D01*
X1733160Y907195D01*
X1734690Y905200D01*
X1736650Y903697D01*
X1736441Y903081D01*
X1736198Y902494D01*
X1682342D01*
X1681974Y903709D01*
X1681996Y903724D01*
X1683322Y905709D01*
X1683788Y908050D01*
X1683322Y910391D01*
X1681996Y912376D01*
X1680011Y913702D01*
X1677670Y914167D01*
X1675329Y913702D01*
X1673344Y912376D01*
X1672018Y910391D01*
X1671552Y908050D01*
X1672018Y905709D01*
X1673344Y903724D01*
X1673367Y903709D01*
X1672998Y902494D01*
X1665832D01*
X1665464Y903709D01*
X1665486Y903724D01*
X1666812Y905709D01*
X1667278Y908050D01*
X1666812Y910391D01*
X1665486Y912376D01*
X1663501Y913702D01*
X1661160Y914167D01*
X1658819Y913702D01*
X1656834Y912376D01*
X1655508Y910391D01*
X1655043Y908050D01*
X1655508Y905709D01*
X1656834Y903724D01*
X1656857Y903709D01*
X1656488Y902494D01*
X1650592D01*
X1650224Y903709D01*
X1650246Y903724D01*
X1651572Y905709D01*
X1652038Y908050D01*
X1651572Y910391D01*
X1650246Y912376D01*
X1648261Y913702D01*
X1645920Y914167D01*
X1643579Y913702D01*
X1641594Y912376D01*
X1640268Y910391D01*
X1639803Y908050D01*
X1640268Y905709D01*
X1641594Y903724D01*
X1641617Y903709D01*
X1641248Y902494D01*
X1487964D01*
Y1035526D01*
X1736198D01*
X1736441Y1034939D01*
D02*
G37*
%LPC*%
G36*
X1738548Y939558D02*
X1726270D01*
Y935280D01*
X1738548D01*
Y939558D01*
D02*
G37*
G36*
X1723730D02*
X1711452D01*
Y935280D01*
X1723730D01*
Y939558D01*
D02*
G37*
G36*
X1682750Y932180D02*
X1679126D01*
X1679265Y931480D01*
X1680185Y930104D01*
X1679479Y929048D01*
X1677670Y929408D01*
X1675329Y928942D01*
X1673344Y927616D01*
X1672018Y925631D01*
X1671552Y923290D01*
X1672018Y920949D01*
X1673344Y918964D01*
X1675329Y917638D01*
X1677670Y917172D01*
X1680011Y917638D01*
X1681996Y918964D01*
X1683322Y920949D01*
X1683788Y923290D01*
X1683322Y925631D01*
X1682078Y927493D01*
X1682750Y928499D01*
Y932180D01*
D02*
G37*
G36*
Y938344D02*
X1682050Y938205D01*
X1680381Y937089D01*
X1679265Y935420D01*
X1679126Y934720D01*
X1682750D01*
Y938344D01*
D02*
G37*
G36*
X1751000Y955132D02*
X1748768Y954838D01*
X1746689Y953977D01*
X1744904Y952607D01*
X1743533Y950821D01*
X1742672Y948742D01*
X1742378Y946510D01*
X1742672Y944278D01*
X1743533Y942199D01*
X1744904Y940414D01*
X1746689Y939043D01*
X1748768Y938182D01*
X1751000Y937888D01*
X1753232Y938182D01*
X1755311Y939043D01*
X1757097Y940414D01*
X1758467Y942199D01*
X1759328Y944278D01*
X1759622Y946510D01*
X1759328Y948742D01*
X1758467Y950821D01*
X1757097Y952607D01*
X1755311Y953977D01*
X1753232Y954838D01*
X1751000Y955132D01*
D02*
G37*
G36*
X1647190Y977740D02*
X1643460D01*
Y974260D01*
X1647190D01*
Y977740D01*
D02*
G37*
G36*
X1653460D02*
X1649730D01*
Y974260D01*
X1653460D01*
Y977740D01*
D02*
G37*
G36*
X1625870Y974210D02*
X1620640D01*
Y966980D01*
X1625870D01*
Y974210D01*
D02*
G37*
G36*
X1593850Y957420D02*
X1590120D01*
Y953940D01*
X1593850D01*
Y957420D01*
D02*
G37*
G36*
X1600120D02*
X1596390D01*
Y953940D01*
X1600120D01*
Y957420D01*
D02*
G37*
G36*
X1509539Y915162D02*
X1501394D01*
Y907017D01*
X1502604Y907177D01*
X1504915Y908134D01*
X1506899Y909657D01*
X1508422Y911641D01*
X1509379Y913952D01*
X1509539Y915162D01*
D02*
G37*
G36*
X1566080Y915146D02*
X1565380Y915007D01*
X1563711Y913891D01*
X1562595Y912222D01*
X1562456Y911522D01*
X1566080D01*
Y915146D01*
D02*
G37*
G36*
X1498854Y915162D02*
X1490709D01*
X1490869Y913952D01*
X1491826Y911641D01*
X1493349Y909657D01*
X1495333Y908134D01*
X1497644Y907177D01*
X1498854Y907017D01*
Y915162D01*
D02*
G37*
G36*
X1566080Y908982D02*
X1562456D01*
X1562595Y908282D01*
X1563711Y906613D01*
X1565380Y905497D01*
X1566080Y905358D01*
Y908982D01*
D02*
G37*
G36*
X1572244D02*
X1568620D01*
Y905358D01*
X1569320Y905497D01*
X1570989Y906613D01*
X1572105Y908282D01*
X1572244Y908982D01*
D02*
G37*
G36*
X1738548Y932740D02*
X1726270D01*
Y928462D01*
X1738548D01*
Y932740D01*
D02*
G37*
G36*
X1688914Y932180D02*
X1685290D01*
Y928556D01*
X1685990Y928695D01*
X1687659Y929811D01*
X1688775Y931480D01*
X1688914Y932180D01*
D02*
G37*
G36*
X1723730Y932740D02*
X1711452D01*
Y928462D01*
X1723730D01*
Y932740D01*
D02*
G37*
G36*
X1749730Y921640D02*
X1741500D01*
X1739008Y921312D01*
X1736685Y920350D01*
X1734690Y918820D01*
X1733160Y916825D01*
X1732198Y914502D01*
X1732037Y913280D01*
X1749730D01*
Y921640D01*
D02*
G37*
G36*
X1498854Y925847D02*
X1497644Y925687D01*
X1495333Y924730D01*
X1493349Y923207D01*
X1491826Y921223D01*
X1490869Y918912D01*
X1490709Y917702D01*
X1498854D01*
Y925847D01*
D02*
G37*
G36*
X1682750Y1018354D02*
Y1014730D01*
X1686374D01*
X1686235Y1015430D01*
X1685119Y1017099D01*
X1683450Y1018215D01*
X1682750Y1018354D01*
D02*
G37*
G36*
X1749730Y1024740D02*
X1732037D01*
X1732198Y1023518D01*
X1733160Y1021195D01*
X1734690Y1019200D01*
X1736685Y1017670D01*
X1739008Y1016708D01*
X1741500Y1016380D01*
X1749730D01*
Y1024740D01*
D02*
G37*
G36*
X1680210Y1018354D02*
X1679510Y1018215D01*
X1677841Y1017099D01*
X1676725Y1015430D01*
X1676586Y1014730D01*
X1680210D01*
Y1018354D01*
D02*
G37*
G36*
X1686374Y1012190D02*
X1682750D01*
Y1008566D01*
X1683450Y1008705D01*
X1685119Y1009821D01*
X1686235Y1011490D01*
X1686374Y1012190D01*
D02*
G37*
G36*
X1636870Y1015920D02*
X1633390D01*
Y1012190D01*
X1636870D01*
Y1015920D01*
D02*
G37*
G36*
X1528270Y1032879D02*
X1522290D01*
Y1021149D01*
X1528270D01*
Y1032879D01*
D02*
G37*
G36*
X1536790D02*
X1530810D01*
Y1021149D01*
X1536790D01*
Y1032879D01*
D02*
G37*
G36*
X1566350Y1032810D02*
X1560370D01*
Y1021080D01*
X1566350D01*
Y1032810D01*
D02*
G37*
G36*
X1676750Y1027960D02*
X1664750D01*
Y1017960D01*
X1676750D01*
Y1027960D01*
D02*
G37*
G36*
X1557830Y1032810D02*
X1551850D01*
Y1021080D01*
X1557830D01*
Y1032810D01*
D02*
G37*
G36*
X1680210Y1012190D02*
X1676586D01*
X1676725Y1011490D01*
X1677841Y1009821D01*
X1679510Y1008705D01*
X1680210Y1008566D01*
Y1012190D01*
D02*
G37*
G36*
X1647190Y993140D02*
X1643566D01*
X1643705Y992440D01*
X1644821Y990771D01*
X1646490Y989655D01*
X1647190Y989516D01*
Y993140D01*
D02*
G37*
G36*
X1700750Y1027960D02*
X1688750D01*
Y1017960D01*
Y1014730D01*
X1694750D01*
Y1012190D01*
X1688750D01*
Y1008460D01*
Y998960D01*
X1691416D01*
Y990520D01*
X1687298D01*
X1687298Y990520D01*
Y990520D01*
X1687060Y990520D01*
X1686400Y991180D01*
Y991870D01*
X1681650D01*
Y993140D01*
X1680380D01*
Y998140D01*
X1676900D01*
Y998140D01*
X1676750D01*
Y998960D01*
X1676750D01*
Y1008960D01*
X1664750D01*
Y1008300D01*
X1663540D01*
Y1008300D01*
X1654040D01*
D01*
D01*
X1654040Y1008300D01*
X1653040D01*
Y1008300D01*
X1649560D01*
Y1003300D01*
X1648290D01*
Y1002030D01*
X1643540D01*
Y998300D01*
X1643641D01*
X1644240Y997180D01*
X1643705Y996380D01*
X1643566Y995680D01*
X1648460D01*
Y994410D01*
X1649730D01*
Y989516D01*
X1650430Y989655D01*
X1651560Y987963D01*
X1651579Y987868D01*
X1652695Y986199D01*
X1654364Y985083D01*
X1656334Y984691D01*
X1658304Y985083D01*
X1659973Y986199D01*
X1661089Y987868D01*
X1661481Y989838D01*
X1661376Y990363D01*
X1661481Y990520D01*
X1661700Y990848D01*
X1661954Y992124D01*
Y998300D01*
X1663540D01*
Y998960D01*
X1664750D01*
Y998960D01*
X1666400D01*
Y998140D01*
X1666400D01*
Y988140D01*
X1667816D01*
Y984250D01*
X1668070Y982974D01*
X1668793Y981892D01*
X1669256Y981429D01*
Y957420D01*
X1666240D01*
Y952670D01*
X1663700D01*
Y957420D01*
X1659970D01*
Y957420D01*
X1658227Y957420D01*
X1658220Y957425D01*
X1657520Y957564D01*
Y952670D01*
X1654980D01*
Y957564D01*
X1654442Y957457D01*
X1654037Y957789D01*
X1653716Y958269D01*
X1653716Y958269D01*
X1653605Y958436D01*
X1653605Y958436D01*
X1653460Y958653D01*
Y967240D01*
D01*
Y967240D01*
X1653460Y967240D01*
Y968240D01*
X1653460D01*
Y971720D01*
X1643460D01*
Y968240D01*
X1643460Y968240D01*
X1643460Y967240D01*
X1643460D01*
Y965824D01*
X1640870D01*
Y974210D01*
X1640157D01*
X1639351Y975192D01*
X1639637Y976630D01*
X1639245Y978600D01*
X1638129Y980269D01*
X1636460Y981385D01*
X1634490Y981777D01*
X1632520Y981385D01*
X1630851Y980269D01*
X1629735Y978600D01*
X1629343Y976630D01*
X1629629Y975192D01*
X1628824Y974210D01*
X1627870D01*
Y958882D01*
X1625870D01*
Y964440D01*
X1612870D01*
Y958882D01*
X1609852D01*
X1608576Y958628D01*
X1607494Y957906D01*
X1602923Y953334D01*
X1602200Y952252D01*
X1601946Y950976D01*
Y947818D01*
X1601212Y947084D01*
X1600120Y947415D01*
Y947920D01*
X1600120D01*
Y951400D01*
X1590120D01*
Y947920D01*
X1590120Y947920D01*
X1590120Y946920D01*
X1590120D01*
Y937420D01*
X1598513D01*
Y933370D01*
X1597754D01*
Y933370D01*
X1588254D01*
D01*
D01*
X1588254Y933370D01*
X1587254D01*
Y933370D01*
X1585325D01*
Y938192D01*
X1585325Y938192D01*
X1585091Y939369D01*
X1584424Y940366D01*
X1567456Y957334D01*
X1566459Y958001D01*
X1565282Y958235D01*
X1565282Y958235D01*
X1560761D01*
X1559955Y959217D01*
X1560135Y960120D01*
X1559743Y962090D01*
X1558627Y963759D01*
X1558627Y963759D01*
X1558627D01*
X1557974Y964509D01*
Y964509D01*
X1559643Y965625D01*
X1560759Y967294D01*
X1561151Y969264D01*
X1560759Y971234D01*
X1559643Y972903D01*
X1557974Y974019D01*
X1556004Y974411D01*
X1554034Y974019D01*
X1552365Y972903D01*
X1551987Y972339D01*
X1550670D01*
X1550670Y972339D01*
X1549689Y972144D01*
X1549493Y972105D01*
X1548496Y971438D01*
X1548495Y971438D01*
X1546313Y969256D01*
X1545140Y969742D01*
Y973410D01*
X1542590D01*
Y978710D01*
X1541435D01*
X1541399Y979079D01*
X1541399D01*
X1541311Y979974D01*
X1542734Y980257D01*
X1544403Y981373D01*
X1545519Y983042D01*
X1545658Y983742D01*
X1540764D01*
Y986282D01*
X1545658D01*
X1545519Y986982D01*
X1545493Y987020D01*
X1546092Y988140D01*
X1549240D01*
Y997810D01*
X1551320D01*
Y1006280D01*
X1551850Y1006810D01*
X1552218Y1006810D01*
X1552218Y1006810D01*
Y1006810D01*
X1557830D01*
Y1018540D01*
X1551850D01*
Y1011810D01*
X1551850D01*
X1551320D01*
X1550952Y1011810D01*
X1550952Y1011810D01*
Y1011810D01*
X1537688D01*
X1537688Y1011810D01*
Y1011810D01*
X1537320Y1011810D01*
X1536790Y1012340D01*
Y1018609D01*
X1522290D01*
Y1008220D01*
X1520190D01*
Y1003220D01*
X1517650D01*
Y1008220D01*
X1511046D01*
Y1003470D01*
X1509776D01*
Y1002200D01*
X1504776D01*
Y998720D01*
X1504776Y998720D01*
X1504776Y997720D01*
X1504776D01*
Y992467D01*
X1503794Y991662D01*
X1502410Y991937D01*
X1500440Y991545D01*
X1498771Y990429D01*
X1497655Y988760D01*
X1497263Y986790D01*
X1497655Y984820D01*
X1498771Y983151D01*
X1499335Y982774D01*
Y975360D01*
X1499335Y975360D01*
X1499410Y974981D01*
X1498705Y973925D01*
X1497900Y973765D01*
X1496231Y972649D01*
X1495115Y970980D01*
X1494723Y969010D01*
X1494926Y967988D01*
X1494221Y966932D01*
X1492820Y966653D01*
X1491151Y965537D01*
X1490035Y963868D01*
X1489643Y961898D01*
X1490035Y959928D01*
X1491151Y958259D01*
X1492820Y957143D01*
D01*
D01*
Y957143D01*
X1492475Y955408D01*
X1490654Y953587D01*
X1489932Y952506D01*
X1489678Y951230D01*
Y937006D01*
X1489837Y936205D01*
X1489643Y935228D01*
X1490035Y933258D01*
X1491151Y931589D01*
X1492820Y930473D01*
X1494790Y930081D01*
X1496760Y930473D01*
X1498429Y931589D01*
X1499545Y933258D01*
X1499937Y935228D01*
X1499545Y937198D01*
X1499296Y937570D01*
X1499895Y938690D01*
X1502570D01*
Y930990D01*
X1502570Y930990D01*
X1502570D01*
X1502836Y930492D01*
X1502735Y930340D01*
X1502343Y928370D01*
X1502671Y926720D01*
X1501803Y925793D01*
X1501394Y925847D01*
Y917702D01*
X1509539D01*
X1509379Y918912D01*
X1508422Y921223D01*
X1507699Y922165D01*
X1508147Y923354D01*
X1509460Y923615D01*
X1511129Y924731D01*
X1512245Y926400D01*
X1512637Y928370D01*
X1512311Y930008D01*
X1513117Y930990D01*
X1516550D01*
Y935990D01*
X1519090D01*
Y930990D01*
X1520666D01*
Y926338D01*
X1520920Y925062D01*
X1520831Y924771D01*
X1520733Y924730D01*
X1518748Y923207D01*
X1517226Y921223D01*
X1516268Y918912D01*
X1515942Y916432D01*
X1516268Y913952D01*
X1517226Y911641D01*
X1518748Y909657D01*
X1520733Y908134D01*
X1523044Y907177D01*
X1525524Y906850D01*
X1528004Y907177D01*
X1530315Y908134D01*
X1532299Y909657D01*
X1533822Y911641D01*
X1534780Y913952D01*
X1535106Y916432D01*
X1534780Y918912D01*
X1533822Y921223D01*
X1532299Y923207D01*
X1530315Y924730D01*
X1528745Y925380D01*
X1528604Y926090D01*
X1527881Y927171D01*
X1527334Y927719D01*
Y933648D01*
X1528507Y934134D01*
X1541424Y921217D01*
Y906932D01*
X1560424D01*
Y925932D01*
X1546139D01*
X1534971Y937100D01*
X1535570Y938220D01*
X1536700Y937995D01*
X1536700Y937995D01*
X1561334D01*
X1569631Y929698D01*
Y917002D01*
X1569631Y917002D01*
X1569687Y916719D01*
X1568967Y915673D01*
X1568620Y915614D01*
Y911522D01*
X1572569D01*
X1573396Y911964D01*
X1575419Y909940D01*
X1575420Y909940D01*
X1576417Y909273D01*
X1576613Y909234D01*
X1577594Y909039D01*
X1577754Y908239D01*
Y907114D01*
X1587254D01*
Y907114D01*
X1587254D01*
X1587254Y907114D01*
X1588254D01*
Y907114D01*
X1597754D01*
Y908780D01*
X1624584D01*
X1625860Y909034D01*
X1626942Y909756D01*
X1626942Y909756D01*
X1626942Y909756D01*
X1641927Y924743D01*
X1641928Y924742D01*
X1641927Y924743D01*
X1642650Y925824D01*
X1642904Y927100D01*
Y938751D01*
X1643209Y938955D01*
X1644325Y940624D01*
X1644717Y942594D01*
X1644325Y944564D01*
X1643209Y946233D01*
X1641540Y947349D01*
X1639570Y947741D01*
X1637600Y947349D01*
X1635931Y946233D01*
X1635675Y945851D01*
X1634405D01*
X1634319Y945979D01*
X1632650Y947095D01*
X1630680Y947487D01*
X1628710Y947095D01*
X1628023Y946636D01*
X1626545Y946342D01*
X1625429Y948011D01*
X1623760Y949127D01*
X1621790Y949519D01*
X1619820Y949127D01*
X1619495Y948910D01*
X1618100Y949187D01*
X1618044Y949211D01*
X1617655Y951168D01*
X1618214Y952214D01*
X1642507D01*
X1648115Y946606D01*
X1647769Y946088D01*
X1647377Y944118D01*
X1647769Y942148D01*
X1648885Y940479D01*
X1650554Y939363D01*
X1652524Y938971D01*
X1653179Y939101D01*
X1653196Y939090D01*
X1654472Y938836D01*
X1659970D01*
Y937420D01*
X1669970D01*
Y938854D01*
X1671156Y939090D01*
X1672238Y939812D01*
X1672238Y939812D01*
X1672238Y939812D01*
X1674948Y942523D01*
X1674948Y942522D01*
X1674948Y942523D01*
X1675670Y943604D01*
X1675924Y944880D01*
Y980520D01*
X1675924D01*
X1676560D01*
X1676822Y980520D01*
X1676822Y980520D01*
Y980520D01*
X1680040D01*
Y985520D01*
X1682580D01*
Y980520D01*
X1686060D01*
Y980520D01*
X1686060D01*
X1686060Y980520D01*
X1687060D01*
Y980520D01*
X1695902D01*
X1695902Y980520D01*
Y980520D01*
X1696560Y980520D01*
X1696800Y980280D01*
Y974590D01*
X1696800Y974590D01*
X1696800Y973590D01*
X1696800D01*
Y972174D01*
X1695450D01*
X1694174Y971920D01*
X1693092Y971198D01*
X1691450Y969555D01*
X1691090Y969627D01*
X1689120Y969235D01*
X1687451Y968119D01*
X1686335Y966450D01*
X1685943Y964480D01*
X1686335Y962510D01*
X1687451Y960841D01*
X1687646Y960710D01*
Y959440D01*
X1687477Y959327D01*
X1686361Y957657D01*
X1685970Y955688D01*
X1686361Y953718D01*
X1687477Y952048D01*
X1689147Y950933D01*
X1691116Y950541D01*
X1691477Y950612D01*
X1693404Y948685D01*
X1692806Y947565D01*
X1692148Y947695D01*
X1689807Y947230D01*
X1687822Y945904D01*
X1686496Y943919D01*
X1686030Y941578D01*
X1686496Y939237D01*
X1685290Y938431D01*
Y934720D01*
X1689001D01*
X1689807Y935926D01*
X1692148Y935461D01*
X1694489Y935926D01*
X1696474Y937252D01*
X1697800Y939237D01*
X1698266Y941578D01*
X1698025Y942788D01*
X1698831Y943770D01*
X1706800D01*
Y953270D01*
D01*
Y953270D01*
X1706800Y953270D01*
Y954270D01*
X1706800D01*
Y955676D01*
X1711452D01*
Y953462D01*
X1738548D01*
Y964558D01*
X1711452D01*
Y962344D01*
X1706800D01*
Y963770D01*
D01*
Y963770D01*
X1706800Y963770D01*
Y964090D01*
X1706800D01*
Y973590D01*
D01*
Y973590D01*
X1706800Y973590D01*
Y974590D01*
D01*
X1706800Y975676D01*
X1711452D01*
Y973462D01*
X1738548D01*
Y984558D01*
X1711452D01*
Y982344D01*
X1706800D01*
Y984090D01*
X1697458D01*
X1697458Y984090D01*
Y984090D01*
X1696800Y984090D01*
X1696560Y984330D01*
Y985555D01*
X1697108Y986102D01*
X1697830Y987184D01*
X1697830Y987184D01*
X1697830Y987184D01*
X1698084Y988460D01*
Y998960D01*
X1700750D01*
Y1000626D01*
X1711452D01*
Y998462D01*
X1738548D01*
Y1009558D01*
X1711452D01*
Y1007294D01*
X1706404D01*
Y1019810D01*
X1706150Y1021086D01*
X1705428Y1022168D01*
X1702278Y1025318D01*
X1701196Y1026040D01*
X1700750Y1026129D01*
Y1027960D01*
D02*
G37*
G36*
X1640870Y996440D02*
X1635640D01*
Y989210D01*
X1640870D01*
Y996440D01*
D02*
G37*
G36*
X1751000Y1000132D02*
X1748768Y999838D01*
X1746689Y998977D01*
X1744904Y997607D01*
X1743533Y995821D01*
X1742672Y993742D01*
X1742378Y991510D01*
X1742672Y989278D01*
X1743533Y987199D01*
X1744904Y985414D01*
X1746689Y984043D01*
X1748768Y983182D01*
X1751000Y982888D01*
X1753232Y983182D01*
X1755311Y984043D01*
X1757097Y985414D01*
X1758467Y987199D01*
X1759328Y989278D01*
X1759622Y991510D01*
X1759328Y993742D01*
X1758467Y995821D01*
X1757097Y997607D01*
X1755311Y998977D01*
X1753232Y999838D01*
X1751000Y1000132D01*
D02*
G37*
G36*
X1633100Y996440D02*
X1627870D01*
Y989210D01*
X1633100D01*
Y996440D01*
D02*
G37*
G36*
X1508506Y1008220D02*
X1504776D01*
Y1004740D01*
X1508506D01*
Y1008220D01*
D02*
G37*
G36*
X1566350Y1018540D02*
X1560370D01*
Y1006810D01*
X1566350D01*
Y1018540D01*
D02*
G37*
G36*
X1647020Y1008300D02*
X1643540D01*
Y1004570D01*
X1647020D01*
Y1008300D01*
D02*
G37*
G36*
X1686400Y998140D02*
X1682920D01*
Y994410D01*
X1686400D01*
Y998140D01*
D02*
G37*
G36*
X1626370Y1015920D02*
Y1015920D01*
X1616870D01*
Y1006210D01*
X1612870D01*
Y992317D01*
X1611750Y991719D01*
X1609907Y992950D01*
X1607566Y993416D01*
X1605225Y992950D01*
X1603240Y991624D01*
X1601914Y989639D01*
X1601505Y987584D01*
X1600120D01*
Y989170D01*
X1573610D01*
Y987325D01*
X1572514D01*
X1572514Y987325D01*
X1571532Y987130D01*
X1571337Y987091D01*
X1570340Y986424D01*
X1570340Y986424D01*
X1566091Y982176D01*
X1565347Y982028D01*
X1563362Y980702D01*
X1562036Y978717D01*
X1561570Y976376D01*
X1562036Y974035D01*
X1563362Y972050D01*
X1565347Y970724D01*
X1567688Y970258D01*
X1570029Y970724D01*
X1572014Y972050D01*
X1572395Y972620D01*
X1573610Y972252D01*
Y969170D01*
X1577340D01*
Y973920D01*
X1579880D01*
Y969170D01*
X1585468D01*
Y973920D01*
X1588008D01*
Y969170D01*
X1593850D01*
Y973920D01*
X1596390D01*
Y969170D01*
X1600120D01*
Y970556D01*
X1601335Y970925D01*
X1602224Y969594D01*
X1604209Y968268D01*
X1605280Y968055D01*
Y973920D01*
X1607820D01*
Y968055D01*
X1608891Y968268D01*
X1610876Y969594D01*
X1611655Y970760D01*
X1612870Y970391D01*
Y966980D01*
X1618100D01*
Y974210D01*
X1614126D01*
Y974210D01*
X1614126Y974210D01*
X1612870Y974210D01*
X1612870D01*
X1612610D01*
X1612202Y976261D01*
X1610876Y978246D01*
X1608891Y979572D01*
X1606550Y980038D01*
X1606039Y979936D01*
X1605942Y980427D01*
X1606840Y981325D01*
X1607566Y981180D01*
X1609907Y981646D01*
X1611892Y982972D01*
X1613218Y984957D01*
X1613218Y984957D01*
Y984957D01*
X1613233Y984989D01*
X1614493Y984829D01*
X1614495Y984820D01*
X1615611Y983151D01*
X1617280Y982035D01*
X1619250Y981643D01*
X1621220Y982035D01*
X1622889Y983151D01*
X1624005Y984820D01*
X1624397Y986790D01*
X1624111Y988228D01*
X1624917Y989210D01*
X1625870D01*
Y1005920D01*
X1626370Y1005920D01*
D01*
D01*
X1627370D01*
D01*
X1627870Y1005920D01*
Y998980D01*
X1640870D01*
Y1006210D01*
X1636870D01*
Y1009650D01*
X1632120D01*
Y1010920D01*
X1630850D01*
Y1015920D01*
X1627370D01*
D01*
D01*
X1627370Y1015920D01*
X1626370D01*
D02*
G37*
%LPD*%
D10*
X1518920Y1003220D02*
D03*
Y993220D02*
D03*
D11*
X1559100Y1019810D02*
D03*
X1529540Y1019879D02*
D03*
D12*
X1544320Y1004810D02*
D03*
D13*
X1544490Y993140D02*
D03*
X1533990D02*
D03*
X1603264Y933450D02*
D03*
X1613763D02*
D03*
X1658790Y1003300D02*
D03*
X1648290D02*
D03*
X1593004Y928370D02*
D03*
X1582504D02*
D03*
X1593004Y920242D02*
D03*
X1582504D02*
D03*
X1593004Y912114D02*
D03*
X1582504D02*
D03*
X1507320Y935990D02*
D03*
X1517820D02*
D03*
X1671150Y993140D02*
D03*
X1681650D02*
D03*
X1691810Y985520D02*
D03*
X1681310D02*
D03*
X1621620Y1010920D02*
D03*
X1632120D02*
D03*
D14*
X1664970Y942170D02*
D03*
Y952670D02*
D03*
X1595120Y942170D02*
D03*
Y952670D02*
D03*
X1509776Y992970D02*
D03*
Y1003470D02*
D03*
X1701800Y959020D02*
D03*
Y948520D02*
D03*
Y979340D02*
D03*
Y968840D02*
D03*
X1499870Y943440D02*
D03*
Y953940D02*
D03*
X1586738Y973920D02*
D03*
Y984420D02*
D03*
X1595120Y973920D02*
D03*
Y984420D02*
D03*
X1578610D02*
D03*
Y973920D02*
D03*
X1648460Y972990D02*
D03*
Y962490D02*
D03*
D15*
X1634370Y965710D02*
D03*
X1619370D02*
D03*
Y997710D02*
D03*
X1634370D02*
D03*
D16*
X1534040Y976210D02*
D03*
X1529040D02*
D03*
X1524040D02*
D03*
X1519040D02*
D03*
Y949110D02*
D03*
X1524040D02*
D03*
X1529040D02*
D03*
X1534040D02*
D03*
D17*
X1512990Y970160D02*
D03*
Y965160D02*
D03*
Y960160D02*
D03*
Y955160D02*
D03*
X1540090D02*
D03*
Y960160D02*
D03*
Y965160D02*
D03*
Y970160D02*
D03*
D18*
X1526540Y962660D02*
D03*
D19*
X1539190Y975310D02*
D03*
Y950010D02*
D03*
X1513890Y975310D02*
D03*
Y950010D02*
D03*
D20*
X1694750Y1003960D02*
D03*
Y1013460D02*
D03*
Y1022960D02*
D03*
X1670750D02*
D03*
Y1003960D02*
D03*
D21*
X1725000Y1004010D02*
D03*
Y979010D02*
D03*
Y959010D02*
D03*
Y934010D02*
D03*
D22*
X1509776Y988060D02*
Y992970D01*
Y988060D02*
X1511046Y986790D01*
X1513840D01*
X1516380Y984250D01*
X1567688Y976376D02*
Y979424D01*
X1499870Y916432D02*
X1506220D01*
X1539190Y950010D02*
X1562050D01*
X1558604Y955160D02*
X1565282D01*
X1557500Y954056D02*
X1558604Y955160D01*
X1552476Y954056D02*
X1557500D01*
X1551372Y955160D02*
X1552476Y954056D01*
X1565282Y955160D02*
X1582250Y938192D01*
X1577594Y912114D02*
X1582504D01*
X1572706Y917002D02*
X1577594Y912114D01*
X1572706Y917002D02*
Y930972D01*
X1578356Y920242D02*
X1582504D01*
X1576738Y921860D02*
X1578356Y920242D01*
X1562608Y941070D02*
X1572706Y930972D01*
X1536700Y941070D02*
X1562608D01*
X1534040Y943730D02*
X1536700Y941070D01*
X1534040Y943730D02*
Y949110D01*
X1582250Y928370D02*
Y938192D01*
X1576738Y921860D02*
Y935322D01*
X1562050Y950010D02*
X1576738Y935322D01*
X1540090Y955160D02*
X1551372D01*
X1567688Y979424D02*
X1572514Y984250D01*
X1529040Y938316D02*
Y949110D01*
X1529040Y965160D02*
Y976210D01*
X1526540Y985012D02*
X1529040Y982512D01*
Y976210D02*
Y982512D01*
X1550670Y969264D02*
X1556004D01*
X1546566Y965160D02*
X1550670Y969264D01*
X1508760Y976884D02*
Y979678D01*
Y976884D02*
X1510334Y975310D01*
X1519682Y954024D02*
Y956056D01*
X1519040Y953382D02*
X1519682Y954024D01*
X1572514Y984250D02*
X1579710D01*
X1501090Y955160D02*
X1512990D01*
X1510080Y950010D02*
X1513890D01*
X1507320Y947250D02*
X1510080Y950010D01*
X1519040Y935990D02*
Y953382D01*
X1507320Y935990D02*
Y947250D01*
X1540090Y960160D02*
X1551940D01*
X1540090Y965160D02*
X1546566D01*
X1524040Y928330D02*
Y949110D01*
X1534040Y976210D02*
Y993090D01*
X1519040Y976210D02*
Y981590D01*
X1502410Y975360D02*
Y986790D01*
X1510334Y975310D02*
X1513890D01*
X1503720Y965160D02*
X1512990D01*
X1502410Y975360D02*
X1507610Y970160D01*
X1512990D01*
X1499870Y969010D02*
X1503720Y965160D01*
X1516380Y984250D02*
X1519040Y981590D01*
D23*
X1604518Y984250D02*
X1607566Y987298D01*
X1595290Y984250D02*
X1604518D01*
X1623702Y976122D02*
X1634370Y986790D01*
X1619370Y976122D02*
X1623702D01*
X1619370Y965710D02*
Y976122D01*
X1634370Y997710D02*
X1642110D01*
Y994410D02*
Y997710D01*
Y994410D02*
X1648460D01*
X1493012Y937006D02*
X1494790Y935228D01*
X1493012Y937006D02*
Y951230D01*
X1501140Y916432D02*
Y943186D01*
X1495722Y953940D02*
X1499870D01*
X1493012Y951230D02*
X1495722Y953940D01*
X1652524Y944118D02*
Y946912D01*
X1643888Y955548D02*
X1652524Y946912D01*
X1609852Y955548D02*
X1643888D01*
X1646174Y940562D02*
Y944925D01*
X1614424Y950722D02*
X1640377D01*
X1639570Y927100D02*
Y942594D01*
X1640377Y950722D02*
X1646174Y944925D01*
X1652524Y944118D02*
X1654472Y942170D01*
X1646174Y940562D02*
X1653286Y933450D01*
X1517820Y928032D02*
Y935990D01*
X1506220Y916432D02*
X1517820Y928032D01*
X1529040Y938316D02*
X1550924Y916432D01*
X1546098D02*
X1550924D01*
X1525524D02*
Y924814D01*
X1524000Y926338D02*
X1525524Y924814D01*
X1653286Y933450D02*
X1684020D01*
X1612900Y949198D02*
X1614424Y950722D01*
X1605280Y950976D02*
X1609852Y955548D01*
X1595120Y942170D02*
X1603586D01*
X1603264Y941848D02*
X1603586Y942170D01*
X1603264Y933450D02*
Y941848D01*
X1605280Y943864D02*
Y950976D01*
X1632120Y1010920D02*
Y1016084D01*
X1628394Y1019810D02*
X1632120Y1016084D01*
X1559100Y1019810D02*
X1628394D01*
X1656334Y989838D02*
X1658620Y992124D01*
X1671150Y984250D02*
Y991870D01*
Y984250D02*
X1672590Y982810D01*
Y944880D02*
Y982810D01*
X1669880Y942170D02*
X1672590Y944880D01*
X1664970Y942170D02*
X1669880D01*
X1540764Y985012D02*
X1547622D01*
X1518920Y993140D02*
X1533990D01*
X1519000Y1003300D02*
X1526540D01*
X1494790Y961898D02*
X1499616D01*
X1501354Y960160D01*
X1621790Y929894D02*
Y944372D01*
X1617726Y925830D02*
X1621790Y929894D01*
X1600200Y925830D02*
X1617726D01*
X1593004Y920242D02*
X1622552D01*
X1593004Y912114D02*
X1624584D01*
X1639570Y927100D01*
X1630680Y928370D02*
Y942340D01*
X1622552Y920242D02*
X1630680Y928370D01*
X1684020Y934010D02*
X1725000D01*
X1691116Y955688D02*
X1698284Y948520D01*
X1701800D01*
X1703070Y1003960D02*
Y1019810D01*
X1699920Y1022960D02*
X1703070Y1019810D01*
X1694750Y1022960D02*
X1699920D01*
X1701800Y959010D02*
X1725000D01*
X1701800Y979010D02*
X1725000D01*
X1691090Y964480D02*
X1695450Y968840D01*
X1701800D01*
X1724950Y1003960D02*
X1725000Y1004010D01*
X1656250Y952670D02*
X1664970D01*
X1684020Y933450D02*
X1684580Y934010D01*
X1671150Y993140D02*
Y1003560D01*
X1691810Y985520D02*
X1694750Y988460D01*
Y1003960D01*
X1724950D01*
X1595120Y973920D02*
X1606550D01*
X1544490Y993140D02*
Y1004640D01*
X1518920Y1018540D02*
X1520259Y1019879D01*
X1529540D01*
X1681480Y943610D02*
X1684020Y941070D01*
Y933450D02*
Y941070D01*
X1587500Y984420D02*
X1595120D01*
X1586738Y973920D02*
X1595120D01*
X1578610D02*
X1586738D01*
X1654472Y942170D02*
X1664970D01*
X1634370Y986790D02*
Y997710D01*
X1619250Y986790D02*
Y997590D01*
X1634490Y965830D02*
Y976630D01*
X1632120Y999960D02*
Y1010920D01*
X1621620Y999960D02*
Y1010920D01*
X1648460Y994410D02*
Y1003130D01*
X1658620Y992124D02*
Y1003130D01*
X1659450Y1003960D01*
X1670750D01*
X1681480Y943610D02*
Y1013460D01*
X1609850Y965710D02*
X1619370D01*
X1612900Y933620D02*
Y949198D01*
X1606550Y969010D02*
X1609850Y965710D01*
X1606550Y969010D02*
Y973920D01*
X1648460Y972990D02*
Y994410D01*
X1637590Y962490D02*
X1648460D01*
X1595120Y952670D02*
Y973920D01*
X1597660Y928370D02*
X1600200Y925830D01*
X1592750Y928370D02*
X1597660D01*
X1507490D02*
Y935820D01*
X1524000Y926338D02*
Y934974D01*
X1509776Y1003470D02*
X1518670D01*
X1559100Y996490D02*
Y1019810D01*
X1547622Y985012D02*
X1559100Y996490D01*
X1518920Y1003220D02*
Y1018540D01*
X1501354Y960160D02*
X1512990D01*
X1648290Y1003300D02*
Y1013460D01*
X1694750D01*
D24*
X1500124Y916432D02*
D03*
X1525524D02*
D03*
D25*
X1550924D02*
D03*
D26*
X1751000Y991510D02*
D03*
Y946510D02*
D03*
D27*
Y1026010D02*
D03*
D28*
Y912010D02*
D03*
D29*
X1494790Y935228D02*
D03*
X1639570Y942594D02*
D03*
X1567350Y910252D02*
D03*
X1526540Y1003300D02*
D03*
X1508760Y979678D02*
D03*
X1612900Y949198D02*
D03*
X1605280Y943864D02*
D03*
X1630680Y942340D02*
D03*
X1621790Y944372D02*
D03*
X1619250Y986790D02*
D03*
X1656250Y952670D02*
D03*
X1652524Y944118D02*
D03*
X1691116Y955688D02*
D03*
X1684020Y933450D02*
D03*
X1691090Y964480D02*
D03*
X1634490Y976630D02*
D03*
X1648460Y994410D02*
D03*
X1656334Y989838D02*
D03*
X1507490Y928370D02*
D03*
X1556004Y969264D02*
D03*
X1554988Y960120D02*
D03*
X1526540Y985012D02*
D03*
X1540764D02*
D03*
X1502410Y986790D02*
D03*
X1499870Y969010D02*
D03*
X1494790Y961898D02*
D03*
X1516380Y984250D02*
D03*
X1681480Y1013460D02*
D03*
X1522730Y966470D02*
D03*
X1530350D02*
D03*
X1522730Y958850D02*
D03*
X1530350D02*
D03*
D30*
X1567688Y976376D02*
D03*
X1606550Y973920D02*
D03*
X1692148Y941578D02*
D03*
X1661160Y908050D02*
D03*
X1677670D02*
D03*
X1645920D02*
D03*
X1677670Y923290D02*
D03*
X1607566Y987298D02*
D03*
M02*
